<?xml version="1.0" ?><svg xmlns="http://www.w3.org/2000/svg" version="1.1" viewBox="-8.65558 -0.745 9.39115 0.86"> 
	 <defs>  
		  <marker id="secArrow-blue" markerWidth="3" markerHeight="4" refX="3" refY="2" orient="auto">   
			   <path d="M3,2 L0,4 L0,0 L3,2" fill="blue" style="stroke:none;fill-opacity:0.5"/>   
		  </marker>  
		  <marker id="secArrow-seagreen" markerWidth="3" markerHeight="4" refX="3" refY="2" orient="auto">   
			   <path d="M3,2 L0,4 L0,0 L3,2" fill="seagreen" style="stroke:none;fill-opacity:0.5"/>   
		  </marker>  
		  <marker id="secArrow-orange" markerWidth="3" markerHeight="4" refX="3" refY="2" orient="auto">   
			   <path d="M3,2 L0,4 L0,0 L3,2" fill="orange" style="stroke:none;fill-opacity:0.5"/>   
		  </marker>  
	 </defs> 
	 <g>  
		  <g>   
			   <g>    
				    <polygon id="psggCenterLoop_0" points="0,-0 -0.0825,-0 -0.165,-0 -0.2475,-0 -0.33,-0 -0.4125,-0 -0.495,-0 -0.5775,-0 -0.66,-0 -0.66,-0.094 0,-0.094 " style="fill:#eee;stroke:darkgrey;stroke-width:0.005"/>    
				    <polyline points="0,-0 -0.0825,-0 -0.165,-0 -0.2475,-0 -0.33,-0 -0.4125,-0 -0.495,-0 -0.5775,-0 -0.66,-0 " style="fill:#eee;stroke:black;stroke-width:0.010" id="psggCenterLoop_0"/>    
				    <polygon points="-0.02,-0.0188 -0.02,-0.0752 -0.04,-0.047 " style="fill:#ccc;stroke-width:0" id="bsggCenterLoop_0"/>    
				    <text x="-0.33000000000000002" y="-0.032899999999999999" text-anchor="middle" font-size="0.040000000000000001" style="fill:darkgrey" id="tsggCenterLoop_0">0</text>    
			   </g>   
			   <g>    
				    <polygon id="psggCenterLoop_1" points="-0.66,-0 -0.7425,-0 -0.825,-0 -0.9075,-0 -0.99,-0 -1.0725,-0 -1.155,-0 -1.2375,-0 -1.32,-0 -1.32,-0.094 -0.66,-0.094 " style="fill:#eee;stroke:darkgrey;stroke-width:0.005"/>    
				    <polyline points="-0.66,-0 -0.7425,-0 -0.825,-0 -0.9075,-0 -0.99,-0 -1.0725,-0 -1.155,-0 -1.2375,-0 -1.32,-0 " style="fill:#eee;stroke:black;stroke-width:0.010" id="psggCenterLoop_1"/>    
				    <polygon points="-0.68,-0.0188 -0.68,-0.0752 -0.7,-0.047 " style="fill:#ccc;stroke-width:0" id="bsggCenterLoop_1"/>    
				    <text x="-0.98999999999999999" y="-0.032899999999999999" text-anchor="middle" font-size="0.040000000000000001" style="fill:darkgrey" id="tsggCenterLoop_1">1</text>    
			   </g>   
			   <g>    
				    <polygon id="psggCenterLoop_2" points="-1.32,-0 -1.4025,-0 -1.485,-0 -1.5675,-0 -1.65,-0 -1.7325,-0 -1.815,-0 -1.8975,-0 -1.98,-0 -1.98,-0.094 -1.32,-0.094 " style="fill:#eee;stroke:darkgrey;stroke-width:0.005"/>    
				    <polyline points="-1.32,-0 -1.4025,-0 -1.485,-0 -1.5675,-0 -1.65,-0 -1.7325,-0 -1.815,-0 -1.8975,-0 -1.98,-0 " style="fill:#eee;stroke:black;stroke-width:0.010" id="psggCenterLoop_2"/>    
				    <polygon points="-1.34,-0.0188 -1.34,-0.0752 -1.36,-0.047 " style="fill:#ccc;stroke-width:0" id="bsggCenterLoop_2"/>    
				    <text x="-1.6500000000000001" y="-0.032899999999999999" text-anchor="middle" font-size="0.040000000000000001" style="fill:darkgrey" id="tsggCenterLoop_2">2</text>    
			   </g>   
			   <g>    
				    <polygon id="psggCenterLoop_3" points="-1.98,-0 -2.0625,-0 -2.145,-0 -2.2275,-0 -2.31,-0 -2.3925,-0 -2.475,-0 -2.5575,-0 -2.64,-0 -2.64,-0.094 -1.98,-0.094 " style="fill:#eee;stroke:darkgrey;stroke-width:0.005"/>    
				    <polyline points="-1.98,-0 -2.0625,-0 -2.145,-0 -2.2275,-0 -2.31,-0 -2.3925,-0 -2.475,-0 -2.5575,-0 -2.64,-0 " style="fill:#eee;stroke:black;stroke-width:0.010" id="psggCenterLoop_3"/>    
				    <polygon points="-2,-0.0188 -2,-0.0752 -2.02,-0.047 " style="fill:#ccc;stroke-width:0" id="bsggCenterLoop_3"/>    
				    <text x="-2.3100000000000001" y="-0.032899999999999999" text-anchor="middle" font-size="0.040000000000000001" style="fill:darkgrey" id="tsggCenterLoop_3">3</text>    
			   </g>   
			   <g>    
				    <polygon id="psggCenterLoop_4" points="-2.64,-0 -2.7225,-0 -2.805,-0 -2.8875,-0 -2.97,-0 -3.0525,-0 -3.135,-0 -3.2175,-0 -3.3,-0 -3.3,-0.094 -2.64,-0.094 " style="fill:#eee;stroke:darkgrey;stroke-width:0.005"/>    
				    <polyline points="-2.64,-0 -2.7225,-0 -2.805,-0 -2.8875,-0 -2.97,-0 -3.0525,-0 -3.135,-0 -3.2175,-0 -3.3,-0 " style="fill:#eee;stroke:black;stroke-width:0.010" id="psggCenterLoop_4"/>    
				    <polygon points="-2.66,-0.0188 -2.66,-0.0752 -2.68,-0.047 " style="fill:#ccc;stroke-width:0" id="bsggCenterLoop_4"/>    
				    <text x="-2.9700000000000002" y="-0.032899999999999999" text-anchor="middle" font-size="0.040000000000000001" style="fill:darkgrey" id="tsggCenterLoop_4">4</text>    
			   </g>   
			   <g>    
				    <polygon id="psggCenterLoop_5" points="-3.3,-0 -3.3825,-0 -3.465,-0 -3.5475,-0 -3.63,-0 -3.7125,-0 -3.795,-0 -3.8775,-0 -3.96,-0 -3.96,-0.094 -3.3,-0.094 " style="fill:#eee;stroke:darkgrey;stroke-width:0.005"/>    
				    <polyline points="-3.3,-0 -3.3825,-0 -3.465,-0 -3.5475,-0 -3.63,-0 -3.7125,-0 -3.795,-0 -3.8775,-0 -3.96,-0 " style="fill:#eee;stroke:black;stroke-width:0.010" id="psggCenterLoop_5"/>    
				    <polygon points="-3.32,-0.0188 -3.32,-0.0752 -3.34,-0.047 " style="fill:#ccc;stroke-width:0" id="bsggCenterLoop_5"/>    
				    <text x="-3.6300000000000003" y="-0.032899999999999999" text-anchor="middle" font-size="0.040000000000000001" style="fill:darkgrey" id="tsggCenterLoop_5">5</text>    
			   </g>   
			   <g>    
				    <polygon id="psggCenterLoop_6" points="-3.96,-0 -4.0425,-0 -4.125,-0 -4.2075,-0 -4.29,-0 -4.3725,-0 -4.455,-0 -4.5375,-0 -4.62,-0 -4.62,-0.094 -3.96,-0.094 " style="fill:#eee;stroke:darkgrey;stroke-width:0.005"/>    
				    <polyline points="-3.96,-0 -4.0425,-0 -4.125,-0 -4.2075,-0 -4.29,-0 -4.3725,-0 -4.455,-0 -4.5375,-0 -4.62,-0 " style="fill:#eee;stroke:black;stroke-width:0.010" id="psggCenterLoop_6"/>    
				    <polygon points="-3.98,-0.0188 -3.98,-0.0752 -4,-0.047 " style="fill:#ccc;stroke-width:0" id="bsggCenterLoop_6"/>    
				    <text x="-4.29" y="-0.032899999999999999" text-anchor="middle" font-size="0.040000000000000001" style="fill:darkgrey" id="tsggCenterLoop_6">6</text>    
			   </g>   
			   <g>    
				    <polygon id="psggCenterLoop_7" points="-4.62,-0 -4.7025,-0 -4.785,-0 -4.8675,-0 -4.95,-0 -5.0325,-0 -5.115,-0 -5.1975,-0 -5.28,-0 -5.28,-0.094 -4.62,-0.094 " style="fill:#eee;stroke:darkgrey;stroke-width:0.005"/>    
				    <polyline points="-4.62,-0 -4.7025,-0 -4.785,-0 -4.8675,-0 -4.95,-0 -5.0325,-0 -5.115,-0 -5.1975,-0 -5.28,-0 " style="fill:#eee;stroke:black;stroke-width:0.010" id="psggCenterLoop_7"/>    
				    <polygon points="-4.64,-0.0188 -4.64,-0.0752 -4.66,-0.047 " style="fill:#ccc;stroke-width:0" id="bsggCenterLoop_7"/>    
				    <text x="-4.9500000000000002" y="-0.032899999999999999" text-anchor="middle" font-size="0.040000000000000001" style="fill:darkgrey" id="tsggCenterLoop_7">7</text>    
			   </g>   
			   <g>    
				    <polygon id="psggCenterLoop_8" points="-5.28,-0 -5.3625,-0 -5.445,-0 -5.5275,-0 -5.61,-0 -5.6925,-0 -5.775,-0 -5.8575,-0 -5.94,-0 -5.94,-0.094 -5.28,-0.094 " style="fill:#eee;stroke:darkgrey;stroke-width:0.005"/>    
				    <polyline points="-5.28,-0 -5.3625,-0 -5.445,-0 -5.5275,-0 -5.61,-0 -5.6925,-0 -5.775,-0 -5.8575,-0 -5.94,-0 " style="fill:#eee;stroke:black;stroke-width:0.010" id="psggCenterLoop_8"/>    
				    <polygon points="-5.3,-0.0188 -5.3,-0.0752 -5.32,-0.047 " style="fill:#ccc;stroke-width:0" id="bsggCenterLoop_8"/>    
				    <text x="-5.6100000000000003" y="-0.032899999999999999" text-anchor="middle" font-size="0.040000000000000001" style="fill:darkgrey" id="tsggCenterLoop_8">8</text>    
			   </g>   
			   <g>    
				    <polygon id="psggCenterLoop_9" points="-5.94,-0 -6.0225,-0 -6.105,-0 -6.1875,-0 -6.27,-0 -6.3525,-0 -6.435,-0 -6.5175,-0 -6.6,-0 -6.6,-0.094 -5.94,-0.094 " style="fill:#eee;stroke:darkgrey;stroke-width:0.005"/>    
				    <polyline points="-5.94,-0 -6.0225,-0 -6.105,-0 -6.1875,-0 -6.27,-0 -6.3525,-0 -6.435,-0 -6.5175,-0 -6.6,-0 " style="fill:#eee;stroke:black;stroke-width:0.010" id="psggCenterLoop_9"/>    
				    <polygon points="-5.96,-0.0188 -5.96,-0.0752 -5.98,-0.047 " style="fill:#ccc;stroke-width:0" id="bsggCenterLoop_9"/>    
				    <text x="-6.2700000000000005" y="-0.032899999999999999" text-anchor="middle" font-size="0.040000000000000001" style="fill:darkgrey" id="tsggCenterLoop_9">9</text>    
			   </g>   
			   <g>    
				    <polygon id="psggCenterLoop_10" points="-6.6,-0 -6.6825,-0 -6.765,-0 -6.8475,-0 -6.93,-0 -7.0125,-0 -7.095,-0 -7.1775,-0 -7.26,-0 -7.26,-0.094 -6.6,-0.094 " style="fill:#eee;stroke:darkgrey;stroke-width:0.005"/>    
				    <polyline points="-6.6,-0 -6.6825,-0 -6.765,-0 -6.8475,-0 -6.93,-0 -7.0125,-0 -7.095,-0 -7.1775,-0 -7.26,-0 " style="fill:#eee;stroke:black;stroke-width:0.010" id="psggCenterLoop_10"/>    
				    <polygon points="-6.62,-0.0188 -6.62,-0.0752 -6.64,-0.047 " style="fill:#ccc;stroke-width:0" id="bsggCenterLoop_10"/>    
				    <text x="-6.9300000000000006" y="-0.032899999999999999" text-anchor="middle" font-size="0.040000000000000001" style="fill:darkgrey" id="tsggCenterLoop_10">10</text>    
			   </g>   
			   <g>    
				    <polygon id="psggCenterLoop_11" points="-7.26,-0 -7.3425,-0 -7.425,-0 -7.5075,-0 -7.59,-0 -7.6725,-0 -7.755,-0 -7.8375,-0 -7.92,-0 -7.92,-0.094 -7.26,-0.094 " style="fill:#eee;stroke:darkgrey;stroke-width:0.005"/>    
				    <polyline points="-7.26,-0 -7.3425,-0 -7.425,-0 -7.5075,-0 -7.59,-0 -7.6725,-0 -7.755,-0 -7.8375,-0 -7.92,-0 " style="fill:#eee;stroke:black;stroke-width:0.010" id="psggCenterLoop_11"/>    
				    <polygon points="-7.28,-0.0188 -7.28,-0.0752 -7.3,-0.047 " style="fill:#ccc;stroke-width:0" id="bsggCenterLoop_11"/>    
				    <text x="-7.5900000000000007" y="-0.032899999999999999" text-anchor="middle" font-size="0.040000000000000001" style="fill:darkgrey" id="tsggCenterLoop_11">11</text>    
			   </g>   
			   <g>    
				    <polygon id="psggCenterLoop_12" points="-7.92,-0 -7.97633,-0 -8.03266,-3.66468e-08 -8.08899,-4.17485e-05 -8.14532,-0.000445667 -8.20162,-0.00204461 -8.25778,-0.00636481 -8.3133,-0.0156938 -8.36694,-0.0326832 -8.33097,-0.119528 -7.92,-0.094 " style="fill:#eee;stroke:darkgrey;stroke-width:0.005"/>    
				    <polyline points="-7.92,-0 -7.97633,-0 -8.03266,-3.66468e-08 -8.08899,-4.17485e-05 -8.14532,-0.000445667 -8.20162,-0.00204461 -8.25778,-0.00636481 -8.3133,-0.0156938 -8.36694,-0.0326832 " style="fill:#eee;stroke:black;stroke-width:0.010" id="psggCenterLoop_12"/>    
				    <polygon points="-7.94,-0.0188 -7.94,-0.0752 -7.96,-0.047 " style="fill:#ccc;stroke-width:0" id="bsggCenterLoop_12"/>    
				    <text x="-8.1446430891240258" y="-0.033340803291759029" text-anchor="middle" font-size="0.040000000000000001" style="fill:darkgrey" id="tsggCenterLoop_12">12</text>    
			   </g>   
			   <g>    
				    <polygon id="psggCenterLoop_13" points="-8.36694,-0.0326832 -8.39405,-0.0455047 -8.41977,-0.0609216 -8.44386,-0.0787854 -8.46608,-0.0989241 -8.48621,-0.121144 -8.50408,-0.14523 -8.5195,-0.170952 -8.53232,-0.198061 -8.42748,-0.241486 -8.32351,-0.137523 " style="fill:#eee;stroke:darkgrey;stroke-width:0.005"/>    
				    <polyline points="-8.36694,-0.0326832 -8.39405,-0.0455047 -8.41977,-0.0609216 -8.44386,-0.0787854 -8.46608,-0.0989241 -8.48621,-0.121144 -8.50408,-0.14523 -8.5195,-0.170952 -8.53232,-0.198061 " style="fill:#eee;stroke:black;stroke-width:0.010" id="psggCenterLoop_13"/>    
				    <polygon points="-8.37673,-0.0613047 -8.35068,-0.124208 -8.38218,-0.10041 " style="fill:#ccc;stroke-width:0" id="bsggCenterLoop_13"/>    
				    <text x="-8.4259556532740927" y="-0.12202276087590788" text-anchor="middle" font-size="0.040000000000000001" style="fill:darkgrey" id="tsggCenterLoop_13">13</text>    
			   </g>   
			   <g>    
				    <polygon id="psggCenterLoop_14" points="-8.53232,-0.198061 -8.54242,-0.226296 -8.54971,-0.255385 -8.55411,-0.285048 -8.55558,-0.315 -8.55411,-0.344952 -8.54971,-0.374615 -8.54242,-0.403704 -8.53232,-0.431939 -8.42748,-0.388514 -8.42748,-0.241486 " style="fill:#eee;stroke:darkgrey;stroke-width:0.005"/>    
				    <polyline points="-8.53232,-0.198061 -8.54242,-0.226296 -8.54971,-0.255385 -8.55411,-0.285048 -8.55558,-0.315 -8.55411,-0.344952 -8.54971,-0.374615 -8.54242,-0.403704 -8.53232,-0.431939 " style="fill:#eee;stroke:black;stroke-width:0.010" id="psggCenterLoop_14"/>    
				    <polygon points="-8.519,-0.225223 -8.4561,-0.251279 -8.4952,-0.256729 " style="fill:#ccc;stroke-width:0" id="bsggCenterLoop_14"/>    
				    <text x="-8.4988388712364387" y="-0.29797841414999998" text-anchor="middle" font-size="0.040000000000000001" style="fill:darkgrey" id="tsggCenterLoop_14">14</text>    
			   </g>   
			   <g>    
				    <polygon id="psggCenterLoop_15" points="-8.53232,-0.431939 -8.5195,-0.459048 -8.50408,-0.48477 -8.48621,-0.508856 -8.46608,-0.531076 -8.44386,-0.551215 -8.41977,-0.569078 -8.39405,-0.584495 -8.36694,-0.597317 -8.32351,-0.492477 -8.42748,-0.388514 " style="fill:#eee;stroke:darkgrey;stroke-width:0.005"/>    
				    <polyline points="-8.53232,-0.431939 -8.5195,-0.459048 -8.50408,-0.48477 -8.48621,-0.508856 -8.46608,-0.531076 -8.44386,-0.551215 -8.41977,-0.569078 -8.39405,-0.584495 -8.36694,-0.597317 " style="fill:#eee;stroke:black;stroke-width:0.010" id="psggCenterLoop_15"/>    
				    <polygon points="-8.5037,-0.441732 -8.44079,-0.415676 -8.46459,-0.447182 " style="fill:#ccc;stroke-width:0" id="bsggCenterLoop_15"/>    
				    <text x="-8.4259556532740927" y="-0.47393406742409211" text-anchor="middle" font-size="0.040000000000000001" style="fill:darkgrey" id="tsggCenterLoop_15">15</text>    
			   </g>   
			   <g>    
				    <polygon id="psggCenterLoop_16" points="-8.36694,-0.597317 -8.3133,-0.614306 -8.25778,-0.623635 -8.20162,-0.627955 -8.14532,-0.629554 -8.08899,-0.629958 -8.03266,-0.63 -7.97633,-0.63 -7.92,-0.63 -7.92,-0.536 -8.33097,-0.510472 " style="fill:#eee;stroke:darkgrey;stroke-width:0.005"/>    
				    <polyline points="-8.36694,-0.597317 -8.3133,-0.614306 -8.25778,-0.623635 -8.20162,-0.627955 -8.14532,-0.629554 -8.08899,-0.629958 -8.03266,-0.63 -7.97633,-0.63 -7.92,-0.63 " style="fill:#eee;stroke:black;stroke-width:0.010" id="psggCenterLoop_16"/>    
				    <polygon points="-8.34127,-0.587602 -8.31968,-0.535495 -8.312,-0.569202 " style="fill:#ccc;stroke-width:0" id="bsggCenterLoop_16"/>    
				    <text x="-8.1446430891240258" y="-0.56845919670824108" text-anchor="middle" font-size="0.040000000000000001" style="fill:darkgrey" id="tsggCenterLoop_16">16</text>    
			   </g>   
			   <g>    
				    <polygon id="psggCenterLoop_17" points="-7.92,-0.63 -7.8375,-0.63 -7.755,-0.63 -7.6725,-0.63 -7.59,-0.63 -7.5075,-0.63 -7.425,-0.63 -7.3425,-0.63 -7.26,-0.63 -7.26,-0.536 -7.92,-0.536 " style="fill:#eee;stroke:darkgrey;stroke-width:0.005"/>    
				    <polyline points="-7.92,-0.63 -7.8375,-0.63 -7.755,-0.63 -7.6725,-0.63 -7.59,-0.63 -7.5075,-0.63 -7.425,-0.63 -7.3425,-0.63 -7.26,-0.63 " style="fill:#eee;stroke:black;stroke-width:0.010" id="psggCenterLoop_17"/>    
				    <polygon points="-7.9,-0.6112 -7.9,-0.5548 -7.88,-0.583 " style="fill:#ccc;stroke-width:0" id="bsggCenterLoop_17"/>    
				    <text x="-7.5900000000000016" y="-0.56890000000000029" text-anchor="middle" font-size="0.040000000000000001" style="fill:darkgrey" id="tsggCenterLoop_17">17</text>    
			   </g>   
			   <g>    
				    <polygon id="psggCenterLoop_18" points="-7.26,-0.63 -7.1775,-0.63 -7.095,-0.63 -7.0125,-0.63 -6.93,-0.63 -6.8475,-0.63 -6.765,-0.63 -6.6825,-0.63 -6.6,-0.63 -6.6,-0.536 -7.26,-0.536 " style="fill:#eee;stroke:darkgrey;stroke-width:0.005"/>    
				    <polyline points="-7.26,-0.63 -7.1775,-0.63 -7.095,-0.63 -7.0125,-0.63 -6.93,-0.63 -6.8475,-0.63 -6.765,-0.63 -6.6825,-0.63 -6.6,-0.63 " style="fill:#eee;stroke:black;stroke-width:0.010" id="psggCenterLoop_18"/>    
				    <polygon points="-7.24,-0.6112 -7.24,-0.5548 -7.22,-0.583 " style="fill:#ccc;stroke-width:0" id="bsggCenterLoop_18"/>    
				    <text x="-6.9300000000000015" y="-0.56890000000000063" text-anchor="middle" font-size="0.040000000000000001" style="fill:darkgrey" id="tsggCenterLoop_18">18</text>    
			   </g>   
			   <g>    
				    <polygon id="psggCenterLoop_19" points="-6.6,-0.63 -6.5175,-0.63 -6.435,-0.63 -6.3525,-0.63 -6.27,-0.63 -6.1875,-0.63 -6.105,-0.63 -6.0225,-0.63 -5.94,-0.63 -5.94,-0.536 -6.6,-0.536 " style="fill:#eee;stroke:darkgrey;stroke-width:0.005"/>    
				    <polyline points="-6.6,-0.63 -6.5175,-0.63 -6.435,-0.63 -6.3525,-0.63 -6.27,-0.63 -6.1875,-0.63 -6.105,-0.63 -6.0225,-0.63 -5.94,-0.63 " style="fill:#eee;stroke:black;stroke-width:0.010" id="psggCenterLoop_19"/>    
				    <polygon points="-6.58,-0.6112 -6.58,-0.5548 -6.56,-0.583 " style="fill:#ccc;stroke-width:0" id="bsggCenterLoop_19"/>    
				    <text x="-6.2700000000000014" y="-0.56890000000000096" text-anchor="middle" font-size="0.040000000000000001" style="fill:darkgrey" id="tsggCenterLoop_19">19</text>    
			   </g>   
			   <g>    
				    <polygon id="psggCenterLoop_20" points="-5.94,-0.63 -5.8575,-0.63 -5.775,-0.63 -5.6925,-0.63 -5.61,-0.63 -5.5275,-0.63 -5.445,-0.63 -5.3625,-0.63 -5.28,-0.63 -5.28,-0.536 -5.94,-0.536 " style="fill:#eee;stroke:darkgrey;stroke-width:0.005"/>    
				    <polyline points="-5.94,-0.63 -5.8575,-0.63 -5.775,-0.63 -5.6925,-0.63 -5.61,-0.63 -5.5275,-0.63 -5.445,-0.63 -5.3625,-0.63 -5.28,-0.63 " style="fill:#eee;stroke:black;stroke-width:0.010" id="psggCenterLoop_20"/>    
				    <polygon points="-5.92,-0.6112 -5.92,-0.5548 -5.9,-0.583 " style="fill:#ccc;stroke-width:0" id="bsggCenterLoop_20"/>    
				    <text x="-5.6100000000000012" y="-0.56890000000000129" text-anchor="middle" font-size="0.040000000000000001" style="fill:darkgrey" id="tsggCenterLoop_20">20</text>    
			   </g>   
			   <g>    
				    <polygon id="psggCenterLoop_21" points="-5.28,-0.63 -5.1975,-0.63 -5.115,-0.63 -5.0325,-0.63 -4.95,-0.63 -4.8675,-0.63 -4.785,-0.63 -4.7025,-0.63 -4.62,-0.63 -4.62,-0.536 -5.28,-0.536 " style="fill:#eee;stroke:darkgrey;stroke-width:0.005"/>    
				    <polyline points="-5.28,-0.63 -5.1975,-0.63 -5.115,-0.63 -5.0325,-0.63 -4.95,-0.63 -4.8675,-0.63 -4.785,-0.63 -4.7025,-0.63 -4.62,-0.63 " style="fill:#eee;stroke:black;stroke-width:0.010" id="psggCenterLoop_21"/>    
				    <polygon points="-5.26,-0.6112 -5.26,-0.5548 -5.24,-0.583 " style="fill:#ccc;stroke-width:0" id="bsggCenterLoop_21"/>    
				    <text x="-4.9500000000000011" y="-0.56890000000000163" text-anchor="middle" font-size="0.040000000000000001" style="fill:darkgrey" id="tsggCenterLoop_21">21</text>    
			   </g>   
			   <g>    
				    <polygon id="psggCenterLoop_22" points="-4.62,-0.63 -4.5375,-0.63 -4.455,-0.63 -4.3725,-0.63 -4.29,-0.63 -4.2075,-0.63 -4.125,-0.63 -4.0425,-0.63 -3.96,-0.63 -3.96,-0.536 -4.62,-0.536 " style="fill:#eee;stroke:darkgrey;stroke-width:0.005"/>    
				    <polyline points="-4.62,-0.63 -4.5375,-0.63 -4.455,-0.63 -4.3725,-0.63 -4.29,-0.63 -4.2075,-0.63 -4.125,-0.63 -4.0425,-0.63 -3.96,-0.63 " style="fill:#eee;stroke:black;stroke-width:0.010" id="psggCenterLoop_22"/>    
				    <polygon points="-4.6,-0.6112 -4.6,-0.5548 -4.58,-0.583 " style="fill:#ccc;stroke-width:0" id="bsggCenterLoop_22"/>    
				    <text x="-4.2900000000000009" y="-0.56890000000000196" text-anchor="middle" font-size="0.040000000000000001" style="fill:darkgrey" id="tsggCenterLoop_22">22</text>    
			   </g>   
			   <g>    
				    <polygon id="psggCenterLoop_23" points="-3.96,-0.63 -3.8775,-0.63 -3.795,-0.63 -3.7125,-0.63 -3.63,-0.63 -3.5475,-0.63 -3.465,-0.63 -3.3825,-0.63 -3.3,-0.63 -3.3,-0.536 -3.96,-0.536 " style="fill:#eee;stroke:darkgrey;stroke-width:0.005"/>    
				    <polyline points="-3.96,-0.63 -3.8775,-0.63 -3.795,-0.63 -3.7125,-0.63 -3.63,-0.63 -3.5475,-0.63 -3.465,-0.63 -3.3825,-0.63 -3.3,-0.63 " style="fill:#eee;stroke:black;stroke-width:0.010" id="psggCenterLoop_23"/>    
				    <polygon points="-3.94,-0.6112 -3.94,-0.5548 -3.92,-0.583 " style="fill:#ccc;stroke-width:0" id="bsggCenterLoop_23"/>    
				    <text x="-3.6300000000000008" y="-0.56890000000000229" text-anchor="middle" font-size="0.040000000000000001" style="fill:darkgrey" id="tsggCenterLoop_23">23</text>    
			   </g>   
			   <g>    
				    <polygon id="psggCenterLoop_24" points="-3.3,-0.63 -3.2175,-0.63 -3.135,-0.63 -3.0525,-0.63 -2.97,-0.63 -2.8875,-0.63 -2.805,-0.63 -2.7225,-0.63 -2.64,-0.63 -2.64,-0.536 -3.3,-0.536 " style="fill:#eee;stroke:darkgrey;stroke-width:0.005"/>    
				    <polyline points="-3.3,-0.63 -3.2175,-0.63 -3.135,-0.63 -3.0525,-0.63 -2.97,-0.63 -2.8875,-0.63 -2.805,-0.63 -2.7225,-0.63 -2.64,-0.63 " style="fill:#eee;stroke:black;stroke-width:0.010" id="psggCenterLoop_24"/>    
				    <polygon points="-3.28,-0.6112 -3.28,-0.5548 -3.26,-0.583 " style="fill:#ccc;stroke-width:0" id="bsggCenterLoop_24"/>    
				    <text x="-2.9700000000000006" y="-0.56890000000000263" text-anchor="middle" font-size="0.040000000000000001" style="fill:darkgrey" id="tsggCenterLoop_24">24</text>    
			   </g>   
			   <g>    
				    <polygon id="psggCenterLoop_25" points="-2.64,-0.63 -2.5575,-0.63 -2.475,-0.63 -2.3925,-0.63 -2.31,-0.63 -2.2275,-0.63 -2.145,-0.63 -2.0625,-0.63 -1.98,-0.63 -1.98,-0.536 -2.64,-0.536 " style="fill:#eee;stroke:darkgrey;stroke-width:0.005"/>    
				    <polyline points="-2.64,-0.63 -2.5575,-0.63 -2.475,-0.63 -2.3925,-0.63 -2.31,-0.63 -2.2275,-0.63 -2.145,-0.63 -2.0625,-0.63 -1.98,-0.63 " style="fill:#eee;stroke:black;stroke-width:0.010" id="psggCenterLoop_25"/>    
				    <polygon points="-2.62,-0.6112 -2.62,-0.5548 -2.6,-0.583 " style="fill:#ccc;stroke-width:0" id="bsggCenterLoop_25"/>    
				    <text x="-2.3100000000000005" y="-0.56890000000000296" text-anchor="middle" font-size="0.040000000000000001" style="fill:darkgrey" id="tsggCenterLoop_25">25</text>    
			   </g>   
			   <g>    
				    <polygon id="psggCenterLoop_26" points="-1.98,-0.63 -1.8975,-0.63 -1.815,-0.63 -1.7325,-0.63 -1.65,-0.63 -1.5675,-0.63 -1.485,-0.63 -1.4025,-0.63 -1.32,-0.63 -1.32,-0.536 -1.98,-0.536 " style="fill:#eee;stroke:darkgrey;stroke-width:0.005"/>    
				    <polyline points="-1.98,-0.63 -1.8975,-0.63 -1.815,-0.63 -1.7325,-0.63 -1.65,-0.63 -1.5675,-0.63 -1.485,-0.63 -1.4025,-0.63 -1.32,-0.63 " style="fill:#eee;stroke:black;stroke-width:0.010" id="psggCenterLoop_26"/>    
				    <polygon points="-1.96,-0.6112 -1.96,-0.5548 -1.94,-0.583 " style="fill:#ccc;stroke-width:0" id="bsggCenterLoop_26"/>    
				    <text x="-1.6500000000000004" y="-0.56890000000000329" text-anchor="middle" font-size="0.040000000000000001" style="fill:darkgrey" id="tsggCenterLoop_26">26</text>    
			   </g>   
			   <g>    
				    <polygon id="psggCenterLoop_27" points="-1.32,-0.63 -1.2375,-0.63 -1.155,-0.63 -1.0725,-0.63 -0.99,-0.63 -0.9075,-0.63 -0.825,-0.63 -0.7425,-0.63 -0.66,-0.63 -0.66,-0.536 -1.32,-0.536 " style="fill:#eee;stroke:darkgrey;stroke-width:0.005"/>    
				    <polyline points="-1.32,-0.63 -1.2375,-0.63 -1.155,-0.63 -1.0725,-0.63 -0.99,-0.63 -0.9075,-0.63 -0.825,-0.63 -0.7425,-0.63 -0.66,-0.63 " style="fill:#eee;stroke:black;stroke-width:0.010" id="psggCenterLoop_27"/>    
				    <polygon points="-1.3,-0.6112 -1.3,-0.5548 -1.28,-0.583 " style="fill:#ccc;stroke-width:0" id="bsggCenterLoop_27"/>    
				    <text x="-0.99000000000000021" y="-0.56890000000000363" text-anchor="middle" font-size="0.040000000000000001" style="fill:darkgrey" id="tsggCenterLoop_27">27</text>    
			   </g>   
			   <g>    
				    <polygon id="psggCenterLoop_28" points="-0.66,-0.63 -0.5775,-0.63 -0.495,-0.63 -0.4125,-0.63 -0.33,-0.63 -0.2475,-0.63 -0.165,-0.63 -0.0825,-0.63 0,-0.63 4.17444e-17,-0.536 -0.66,-0.536 " style="fill:#eee;stroke:darkgrey;stroke-width:0.005"/>    
				    <polyline points="-0.66,-0.63 -0.5775,-0.63 -0.495,-0.63 -0.4125,-0.63 -0.33,-0.63 -0.2475,-0.63 -0.165,-0.63 -0.0825,-0.63 0,-0.63 " style="fill:#eee;stroke:black;stroke-width:0.010" id="psggCenterLoop_28"/>    
				    <polygon points="-0.64,-0.6112 -0.64,-0.5548 -0.62,-0.583 " style="fill:#ccc;stroke-width:0" id="bsggCenterLoop_28"/>    
				    <text x="-0.33000000000000007" y="-0.56890000000000396" text-anchor="middle" font-size="0.040000000000000001" style="fill:darkgrey" id="tsggCenterLoop_28">28</text>    
			   </g>   
			   <g>    
				    <polygon id="psggCenterLoop_29" points="0,-0.63 0.0563303,-0.63 0.112661,-0.63 0.168991,-0.629958 0.225319,-0.629554 0.281624,-0.627955 0.337778,-0.623635 0.393297,-0.614306 0.446939,-0.597317 0.410967,-0.510472 4.17444e-17,-0.536 " style="fill:#eee;stroke:darkgrey;stroke-width:0.005"/>    
				    <polyline points="0,-0.63 0.0563303,-0.63 0.112661,-0.63 0.168991,-0.629958 0.225319,-0.629554 0.281624,-0.627955 0.337778,-0.623635 0.393297,-0.614306 0.446939,-0.597317 " style="fill:#eee;stroke:black;stroke-width:0.010" id="psggCenterLoop_29"/>    
				    <polygon points="0.02,-0.6112 0.02,-0.5548 0.04,-0.583 " style="fill:#ccc;stroke-width:0" id="bsggCenterLoop_29"/>    
				    <text x="0.22464308912402489" y="-0.56845919670824518" text-anchor="middle" font-size="0.040000000000000001" style="fill:darkgrey" id="tsggCenterLoop_29">29</text>    
			   </g>   
			   <g>    
				    <polygon id="psggCenterLoop_30" points="0.446939,-0.597317 0.474048,-0.584495 0.49977,-0.569078 0.523856,-0.551215 0.546076,-0.531076 0.566215,-0.508856 0.584078,-0.48477 0.599495,-0.459048 0.612317,-0.431939 0.507477,-0.388514 0.403514,-0.492477 " style="fill:#eee;stroke:darkgrey;stroke-width:0.005"/>    
				    <polyline points="0.446939,-0.597317 0.474048,-0.584495 0.49977,-0.569078 0.523856,-0.551215 0.546076,-0.531076 0.566215,-0.508856 0.584078,-0.48477 0.599495,-0.459048 0.612317,-0.431939 " style="fill:#eee;stroke:black;stroke-width:0.010" id="psggCenterLoop_30"/>    
				    <polygon points="0.456732,-0.568695 0.430676,-0.505792 0.462182,-0.52959 " style="fill:#ccc;stroke-width:0" id="bsggCenterLoop_30"/>    
				    <text x="0.50595565327409242" y="-0.47393406742409655" text-anchor="middle" font-size="0.040000000000000001" style="fill:darkgrey" id="tsggCenterLoop_30">30</text>    
			   </g>   
			   <g>    
				    <polygon id="psggCenterLoop_31" points="0.612317,-0.431939 0.622419,-0.403704 0.629706,-0.374615 0.634106,-0.344952 0.635577,-0.315 0.634106,-0.285048 0.629706,-0.255385 0.622419,-0.226296 0.612317,-0.198061 0.507477,-0.241486 0.507477,-0.388514 " style="fill:#eee;stroke:darkgrey;stroke-width:0.005"/>    
				    <polyline points="0.612317,-0.431939 0.622419,-0.403704 0.629706,-0.374615 0.634106,-0.344952 0.635577,-0.315 0.634106,-0.285048 0.629706,-0.255385 0.622419,-0.226296 0.612317,-0.198061 " style="fill:#eee;stroke:black;stroke-width:0.010" id="psggCenterLoop_31"/>    
				    <polygon points="0.599003,-0.404777 0.536099,-0.378721 0.575204,-0.373271 " style="fill:#ccc;stroke-width:0" id="bsggCenterLoop_31"/>    
				    <text x="0.5788388712364394" y="-0.29797841415000431" text-anchor="middle" font-size="0.040000000000000001" style="fill:darkgrey" id="tsggCenterLoop_31">31</text>    
			   </g>   
			   <g>    
				    <polygon id="psggCenterLoop_32" points="0.612317,-0.198061 0.599495,-0.170952 0.584078,-0.14523 0.566215,-0.121144 0.546076,-0.0989241 0.523856,-0.0787854 0.49977,-0.0609216 0.474048,-0.0455047 0.446939,-0.0326832 0.403514,-0.137523 0.507477,-0.241486 " style="fill:#eee;stroke:darkgrey;stroke-width:0.005"/>    
				    <polyline points="0.612317,-0.198061 0.599495,-0.170952 0.584078,-0.14523 0.566215,-0.121144 0.546076,-0.0989241 0.523856,-0.0787854 0.49977,-0.0609216 0.474048,-0.0455047 0.446939,-0.0326832 " style="fill:#eee;stroke:black;stroke-width:0.010" id="psggCenterLoop_32"/>    
				    <polygon points="0.583695,-0.188268 0.520792,-0.214324 0.54459,-0.182818 " style="fill:#ccc;stroke-width:0" id="bsggCenterLoop_32"/>    
				    <text x="0.50595565327409264" y="-0.12202276087591205" text-anchor="middle" font-size="0.040000000000000001" style="fill:darkgrey" id="tsggCenterLoop_32">32</text>    
			   </g>   
			   <g>    
				    <polygon id="psggCenterLoop_33" points="0.446939,-0.0326832 0.393297,-0.0156938 0.337778,-0.00636481 0.281624,-0.00204461 0.225319,-0.000445667 0.168991,-4.17485e-05 0.112661,-3.66468e-08 0.0563303,-3.76088e-15 3.88578e-16,-3.71925e-15 2.99871e-16,-0.094 0.410967,-0.119528 " style="fill:#eee;stroke:darkgrey;stroke-width:0.005"/>    
				    <polyline points="0.446939,-0.0326832 0.393297,-0.0156938 0.337778,-0.00636481 0.281624,-0.00204461 0.225319,-0.000445667 0.168991,-4.17485e-05 0.112661,-3.66468e-08 0.0563303,-3.76088e-15 3.88578e-16,-3.71925e-15 " style="fill:#eee;stroke:black;stroke-width:0.010" id="psggCenterLoop_33"/>    
				    <polygon points="0.421267,-0.0423985 0.399684,-0.0945053 0.391998,-0.0607982 " style="fill:#ccc;stroke-width:0" id="bsggCenterLoop_33"/>    
				    <text x="0.22464308912402525" y="-0.033340803291762991" text-anchor="middle" font-size="0.040000000000000001" style="fill:darkgrey" id="tsggCenterLoop_33">33</text>    
			   </g>   
			   <g>    
				    <polygon id="psggCell1_Enter_0" points="-0.696084,0.355607 -0.656252,0.315775 -0.616421,0.275944 -0.57656,0.236142 -0.536444,0.196597 -0.4955,0.157914 -0.452738,0.121262 -0.406884,0.0886007 -0.356939,0.0626832 -0.320967,0.149528 -0.629616,0.422075 " style="fill:#eee;stroke:darkgrey;stroke-width:0.005"/>    
				    <polyline points="-0.696084,0.355607 -0.656252,0.315775 -0.616421,0.275944 -0.57656,0.236142 -0.536444,0.196597 -0.4955,0.157914 -0.452738,0.121262 -0.406884,0.0886007 -0.356939,0.0626832 " style="fill:#eee;stroke:black;stroke-width:0.010" id="psggCell1_Enter_0"/>    
				    <polygon points="-0.668648,0.354758 -0.628767,0.394639 -0.634566,0.360556 " style="fill:#ccc;stroke-width:0" id="bsggCell1_Enter_0"/>    
				    <text x="-0.50369150848649102" y="0.2444056637640431" text-anchor="middle" font-size="0.040000000000000001" style="fill:darkgrey" id="tsggCell1_Enter_0">34</text>    
			   </g>   
			   <g>    
				    <polygon id="psggCell1_Enter_1" points="-0.356939,0.0626832 -0.303297,0.0456938 -0.247778,0.0363648 -0.191624,0.0320446 -0.135319,0.0304457 -0.0789907,0.0300417 -0.0226605,0.03 0.0336697,0.03 0.09,0.03 0.09,0.124 -0.320967,0.149528 " style="fill:#eee;stroke:darkgrey;stroke-width:0.005"/>    
				    <polyline points="-0.356939,0.0626832 -0.303297,0.0456938 -0.247778,0.0363648 -0.191624,0.0320446 -0.135319,0.0304457 -0.0789907,0.0300417 -0.0226605,0.03 0.0336697,0.03 0.09,0.03 " style="fill:#eee;stroke:black;stroke-width:0.010" id="psggCell1_Enter_1"/>    
				    <polygon points="-0.331267,0.0723985 -0.309684,0.124505 -0.301998,0.0907982 " style="fill:#ccc;stroke-width:0" id="bsggCell1_Enter_1"/>    
				    <text x="-0.13464308912402437" y="0.091540803291755485" text-anchor="middle" font-size="0.040000000000000001" style="fill:darkgrey" id="tsggCell1_Enter_1">35</text>    
			   </g>   
			   <g>    
				    <polygon id="psggCell1_Load_0" points="-0.653657,0.270754 -0.711994,0.32909 -0.77033,0.387426 -0.828666,0.445763 -0.887003,0.504099 -0.945339,0.562435 -1.00368,0.620772 -1.06201,0.679108 -1.12035,0.737444 -1.18682,0.670976 -0.720126,0.204286 " style="fill:#eee;stroke:darkgrey;stroke-width:0.005"/>    
				    <polyline points="-0.653657,0.270754 -0.711994,0.32909 -0.77033,0.387426 -0.828666,0.445763 -0.887003,0.504099 -0.945339,0.562435 -1.00368,0.620772 -1.06201,0.679108 -1.12035,0.737444 " style="fill:#eee;stroke:black;stroke-width:0.010" id="psggCell1_Load_0"/>    
				    <polygon points="-0.681093,0.271602 -0.720974,0.231721 -0.715176,0.265804 " style="fill:#ccc;stroke-width:0" id="bsggCell1_Load_0"/>    
				    <text x="-0.92023672350145858" y="0.48496500705120282" text-anchor="middle" font-size="0.040000000000000001" style="fill:darkgrey" id="tsggCell1_Load_0">36</text>    
			   </g>   
			   <g>    
				    <polygon id="psggCell1_Load_1" points="-1.12035,0.737444 -1.17868,0.795781 -1.23702,0.854117 -1.29536,0.912453 -1.35369,0.97079 -1.41203,1.02913 -1.47037,1.08746 -1.5287,1.1458 -1.58704,1.20413 -1.65351,1.13767 -1.18682,0.670976 " style="fill:#eee;stroke:darkgrey;stroke-width:0.005"/>    
				    <polyline points="-1.12035,0.737444 -1.17868,0.795781 -1.23702,0.854117 -1.29536,0.912453 -1.35369,0.97079 -1.41203,1.02913 -1.47037,1.08746 -1.5287,1.1458 -1.58704,1.20413 " style="fill:#eee;stroke:black;stroke-width:0.010" id="psggCell1_Load_1"/>    
				    <polygon points="-1.14778,0.738293 -1.18766,0.698412 -1.18187,0.732495 " style="fill:#ccc;stroke-width:0" id="bsggCell1_Load_1"/>    
				    <text x="-1.3869271990845797" y="0.95165548263432476" text-anchor="middle" font-size="0.040000000000000001" style="fill:darkgrey" id="tsggCell1_Load_1">37</text>    
			   </g>   
			   <g>    
				    <polygon id="psggCell1_Load_2" points="-1.58704,1.20413 -1.64537,1.26247 -1.70371,1.32081 -1.76205,1.37914 -1.82038,1.43748 -1.87872,1.49582 -1.93706,1.55415 -1.99539,1.61249 -2.05373,1.67083 -2.1202,1.60436 -1.65351,1.13767 " style="fill:#eee;stroke:darkgrey;stroke-width:0.005"/>    
				    <polyline points="-1.58704,1.20413 -1.64537,1.26247 -1.70371,1.32081 -1.76205,1.37914 -1.82038,1.43748 -1.87872,1.49582 -1.93706,1.55415 -1.99539,1.61249 -2.05373,1.67083 " style="fill:#eee;stroke:black;stroke-width:0.010" id="psggCell1_Load_2"/>    
				    <polygon points="-1.61447,1.20498 -1.65435,1.1651 -1.64856,1.19918 " style="fill:#ccc;stroke-width:0" id="bsggCell1_Load_2"/>    
				    <text x="-1.8536176746677011" y="1.4183459582174467" text-anchor="middle" font-size="0.040000000000000001" style="fill:darkgrey" id="tsggCell1_Load_2">38</text>    
			   </g>   
			   <g>    
				    <polygon id="psggCell1_Load_3" points="-2.05373,1.67083 -2.11207,1.72916 -2.1704,1.7875 -2.22874,1.84583 -2.28707,1.90417 -2.34541,1.96251 -2.40375,2.02084 -2.46208,2.07918 -2.52042,2.13752 -2.58689,2.07105 -2.1202,1.60436 " style="fill:#eee;stroke:darkgrey;stroke-width:0.005"/>    
				    <polyline points="-2.05373,1.67083 -2.11207,1.72916 -2.1704,1.7875 -2.22874,1.84583 -2.28707,1.90417 -2.34541,1.96251 -2.40375,2.02084 -2.46208,2.07918 -2.52042,2.13752 " style="fill:#eee;stroke:black;stroke-width:0.010" id="psggCell1_Load_3"/>    
				    <polygon points="-2.08116,1.67167 -2.12105,1.63179 -2.11525,1.66588 " style="fill:#ccc;stroke-width:0" id="bsggCell1_Load_3"/>    
				    <text x="-2.3203081502508223" y="1.8850364338005685" text-anchor="middle" font-size="0.040000000000000001" style="fill:darkgrey" id="tsggCell1_Load_3">39</text>    
			   </g>   
			   <g>    
				    <polygon id="psggCell1_Load_4" points="-2.52042,2.13752 -2.56025,2.17735 -2.60008,2.21718 -2.63994,2.25698 -2.68006,2.29653 -2.721,2.33521 -2.76376,2.37186 -2.80962,2.40452 -2.85956,2.43044 -2.89554,2.34359 -2.58689,2.07105 " style="fill:#eee;stroke:darkgrey;stroke-width:0.005"/>    
				    <polyline points="-2.52042,2.13752 -2.56025,2.17735 -2.60008,2.21718 -2.63994,2.25698 -2.68006,2.29653 -2.721,2.33521 -2.76376,2.37186 -2.80962,2.40452 -2.85956,2.43044 " style="fill:#eee;stroke:black;stroke-width:0.010" id="psggCell1_Load_4"/>    
				    <polygon points="-2.54786,2.13836 -2.58774,2.09848 -2.58194,2.13257 " style="fill:#ccc;stroke-width:0" id="bsggCell1_Load_4"/>    
				    <text x="-2.712811734705447" y="2.2769166282616493" text-anchor="middle" font-size="0.040000000000000001" style="fill:darkgrey" id="tsggCell1_Load_4">40</text>    
			   </g>   
			   <g>    
				    <polygon id="psggCell1_Load_5" points="-2.85956,2.43044 -2.8878,2.44054 -2.91689,2.44783 -2.94655,2.45223 -2.9765,2.4537 -3.00646,2.45223 -3.03612,2.44783 -3.06521,2.44054 -3.09344,2.43044 -3.05002,2.3256 -2.90299,2.3256 " style="fill:#eee;stroke:darkgrey;stroke-width:0.005"/>    
				    <polyline points="-2.85956,2.43044 -2.8878,2.44054 -2.91689,2.44783 -2.94655,2.45223 -2.9765,2.4537 -3.00646,2.45223 -3.03612,2.44783 -3.06521,2.44054 -3.09344,2.43044 " style="fill:#eee;stroke:black;stroke-width:0.010" id="psggCell1_Load_5"/>    
				    <polygon points="-2.88673,2.41712 -2.91278,2.35422 -2.91823,2.39333 " style="fill:#ccc;stroke-width:0" id="bsggCell1_Load_5"/>    
				    <text x="-2.9765032431919383" y="2.4139827491121348" text-anchor="middle" font-size="0.040000000000000001" style="fill:darkgrey" id="tsggCell1_Load_5">41</text>    
			   </g>   
			   <g>    
				    <polygon id="psggCell1_Load_6" points="-3.09344,2.43044 -3.14339,2.40452 -3.18924,2.37186 -3.232,2.33521 -3.27295,2.29653 -3.31306,2.25698 -3.35292,2.21718 -3.39276,2.17735 -3.43259,2.13752 -3.36612,2.07105 -3.05747,2.34359 " style="fill:#eee;stroke:darkgrey;stroke-width:0.005"/>    
				    <polyline points="-3.09344,2.43044 -3.14339,2.40452 -3.18924,2.37186 -3.232,2.33521 -3.27295,2.29653 -3.31306,2.25698 -3.35292,2.21718 -3.39276,2.17735 -3.43259,2.13752 " style="fill:#eee;stroke:black;stroke-width:0.010" id="psggCell1_Load_6"/>    
				    <polygon points="-3.10473,2.40542 -3.08314,2.35331 -3.11241,2.37171 " style="fill:#ccc;stroke-width:0" id="bsggCell1_Load_6"/>    
				    <text x="-3.24019475167843" y="2.2769166282616498" text-anchor="middle" font-size="0.040000000000000001" style="fill:darkgrey" id="tsggCell1_Load_6">42</text>    
			   </g>   
			   <g>    
				    <polygon id="psggCell1_Load_7" points="-3.43259,2.13752 -3.47242,2.09768 -3.51225,2.05785 -3.55205,2.01799 -3.5916,1.97788 -3.63028,1.93693 -3.66693,1.89417 -3.69959,1.84832 -3.72551,1.79837 -3.63867,1.7624 -3.36612,2.07105 " style="fill:#eee;stroke:darkgrey;stroke-width:0.005"/>    
				    <polyline points="-3.43259,2.13752 -3.47242,2.09768 -3.51225,2.05785 -3.55205,2.01799 -3.5916,1.97788 -3.63028,1.93693 -3.66693,1.89417 -3.69959,1.84832 -3.72551,1.79837 " style="fill:#eee;stroke:black;stroke-width:0.010" id="psggCell1_Load_7"/>    
				    <polygon points="-3.43344,2.11008 -3.39355,2.0702 -3.42764,2.076 " style="fill:#ccc;stroke-width:0" id="bsggCell1_Load_7"/>    
				    <text x="-3.5578880550110141" y="1.9592233249290663" text-anchor="middle" font-size="0.040000000000000001" style="fill:darkgrey" id="tsggCell1_Load_7">43</text>    
			   </g>   
			   <g>    
				    <polygon id="psggCell1_Load_8" points="-3.72551,1.79837 -3.73561,1.77014 -3.7429,1.74105 -3.7473,1.71138 -3.74877,1.68143 -3.7473,1.65148 -3.7429,1.62182 -3.73561,1.59273 -3.72551,1.56449 -3.62067,1.60792 -3.62067,1.75495 " style="fill:#eee;stroke:darkgrey;stroke-width:0.005"/>    
				    <polyline points="-3.72551,1.79837 -3.73561,1.77014 -3.7429,1.74105 -3.7473,1.71138 -3.74877,1.68143 -3.7473,1.65148 -3.7429,1.62182 -3.73561,1.59273 -3.72551,1.56449 " style="fill:#eee;stroke:black;stroke-width:0.010" id="psggCell1_Load_8"/>    
				    <polygon points="-3.7122,1.77121 -3.64929,1.74515 -3.6884,1.7397 " style="fill:#ccc;stroke-width:0" id="bsggCell1_Load_8"/>    
				    <text x="-3.6920325900114999" y="1.6984534022925748" text-anchor="middle" font-size="0.040000000000000001" style="fill:darkgrey" id="tsggCell1_Load_8">44</text>    
			   </g>   
			   <g>    
				    <polygon id="psggCell1_Load_9" points="-3.72551,1.56449 -3.69959,1.51455 -3.66693,1.46869 -3.63028,1.42593 -3.5916,1.38499 -3.55205,1.34487 -3.51225,1.30501 -3.47242,1.26518 -3.43259,1.22535 -3.36612,1.29182 -3.63867,1.60046 " style="fill:#eee;stroke:darkgrey;stroke-width:0.005"/>    
				    <polyline points="-3.72551,1.56449 -3.69959,1.51455 -3.66693,1.46869 -3.63028,1.42593 -3.5916,1.38499 -3.55205,1.34487 -3.51225,1.30501 -3.47242,1.26518 -3.43259,1.22535 " style="fill:#eee;stroke:black;stroke-width:0.010" id="psggCell1_Load_9"/>    
				    <polygon points="-3.70049,1.55321 -3.64838,1.57479 -3.66678,1.54552 " style="fill:#ccc;stroke-width:0" id="bsggCell1_Load_9"/>    
				    <text x="-3.5578880550110146" y="1.4318403079560829" text-anchor="middle" font-size="0.040000000000000001" style="fill:darkgrey" id="tsggCell1_Load_9">45</text>    
			   </g>   
			   <g>    
				    <polygon id="psggCell1_Load_10" points="-3.43259,1.22535 -3.37425,1.16701 -3.31591,1.10868 -3.25758,1.05034 -3.19924,0.992003 -3.14091,0.933666 -3.08257,0.87533 -3.02423,0.816994 -2.9659,0.758657 -2.89943,0.825126 -3.36612,1.29182 " style="fill:#eee;stroke:darkgrey;stroke-width:0.005"/>    
				    <polyline points="-3.43259,1.22535 -3.37425,1.16701 -3.31591,1.10868 -3.25758,1.05034 -3.19924,0.992003 -3.14091,0.933666 -3.08257,0.87533 -3.02423,0.816994 -2.9659,0.758657 " style="fill:#eee;stroke:black;stroke-width:0.010" id="psggCell1_Load_10"/>    
				    <polygon points="-3.40515,1.2245 -3.36527,1.26438 -3.37107,1.2303 " style="fill:#ccc;stroke-width:0" id="bsggCell1_Load_10"/>    
				    <text x="-3.1660078605499344" y="1.0393367235014572" text-anchor="middle" font-size="0.040000000000000001" style="fill:darkgrey" id="tsggCell1_Load_10">46</text>    
			   </g>   
			   <g>    
				    <polygon id="psggCell1_Exit_0" points="-3.37014,0.03 -3.31381,0.03 -3.25748,0.03 -3.20115,0.0300417 -3.14482,0.0304457 -3.08852,0.0320446 -3.03237,0.0363648 -2.97685,0.0456938 -2.9232,0.0626832 -2.95918,0.149528 -3.37014,0.124 " style="fill:#eee;stroke:darkgrey;stroke-width:0.005"/>    
				    <polyline points="-3.37014,0.03 -3.31381,0.03 -3.25748,0.03 -3.20115,0.0300417 -3.14482,0.0304457 -3.08852,0.0320446 -3.03237,0.0363648 -2.97685,0.0456938 -2.9232,0.0626832 " style="fill:#eee;stroke:black;stroke-width:0.010" id="psggCell1_Exit_0"/>    
				    <polygon points="-3.35014,0.0488 -3.35014,0.1052 -3.33014,0.077 " style="fill:#ccc;stroke-width:0" id="bsggCell1_Exit_0"/>    
				    <text x="-3.1454997643747049" y="0.091540803291756859" text-anchor="middle" font-size="0.040000000000000001" style="fill:darkgrey" id="tsggCell1_Exit_0">47</text>    
			   </g>   
			   <g>    
				    <polygon id="psggCell1_Exit_1" points="-2.9232,0.0626832 -2.89609,0.0755047 -2.87037,0.0909216 -2.84629,0.108785 -2.82407,0.128924 -2.80393,0.151144 -2.78606,0.17523 -2.77065,0.200952 -2.75783,0.228061 -2.86267,0.271486 -2.96663,0.167523 " style="fill:#eee;stroke:darkgrey;stroke-width:0.005"/>    
				    <polyline points="-2.9232,0.0626832 -2.89609,0.0755047 -2.87037,0.0909216 -2.84629,0.108785 -2.82407,0.128924 -2.80393,0.151144 -2.78606,0.17523 -2.77065,0.200952 -2.75783,0.228061 " style="fill:#eee;stroke:black;stroke-width:0.010" id="psggCell1_Exit_1"/>    
				    <polygon points="-2.91341,0.0913047 -2.93947,0.154208 -2.90796,0.13041 " style="fill:#ccc;stroke-width:0" id="bsggCell1_Exit_1"/>    
				    <text x="-2.8641872002246376" y="0.18606593257590542" text-anchor="middle" font-size="0.040000000000000001" style="fill:darkgrey" id="tsggCell1_Exit_1">48</text>    
			   </g>   
			   <g>    
				    <polygon id="psggCell1_Exit_2" points="-2.75783,0.228061 -2.74772,0.256296 -2.74044,0.285385 -2.73604,0.315048 -2.73457,0.345 -2.73604,0.374952 -2.74044,0.404615 -2.74772,0.433704 -2.75783,0.461939 -2.86267,0.418514 -2.86267,0.271486 " style="fill:#eee;stroke:darkgrey;stroke-width:0.005"/>    
				    <polyline points="-2.75783,0.228061 -2.74772,0.256296 -2.74044,0.285385 -2.73604,0.315048 -2.73457,0.345 -2.73604,0.374952 -2.74044,0.404615 -2.74772,0.433704 -2.75783,0.461939 " style="fill:#eee;stroke:black;stroke-width:0.010" id="psggCell1_Exit_2"/>    
				    <polygon points="-2.77114,0.255223 -2.83404,0.281279 -2.79494,0.286729 " style="fill:#ccc;stroke-width:0" id="bsggCell1_Exit_2"/>    
				    <text x="-2.7913039822622903" y="0.36202158584999761" text-anchor="middle" font-size="0.040000000000000001" style="fill:darkgrey" id="tsggCell1_Exit_2">49</text>    
			   </g>   
			   <g>    
				    <polygon id="psggCell1_Exit_3" points="-2.75783,0.461939 -2.78374,0.511884 -2.81641,0.557738 -2.85306,0.6005 -2.89174,0.641444 -2.93128,0.68156 -2.97109,0.721421 -3.01092,0.761252 -3.05075,0.801084 -3.11722,0.734616 -2.84467,0.425967 " style="fill:#eee;stroke:darkgrey;stroke-width:0.005"/>    
				    <polyline points="-2.75783,0.461939 -2.78374,0.511884 -2.81641,0.557738 -2.85306,0.6005 -2.89174,0.641444 -2.93128,0.68156 -2.97109,0.721421 -3.01092,0.761252 -3.05075,0.801084 " style="fill:#eee;stroke:black;stroke-width:0.010" id="psggCell1_Exit_3"/>    
				    <polygon points="-2.78285,0.473223 -2.83496,0.451639 -2.81656,0.480909 " style="fill:#ccc;stroke-width:0" id="bsggCell1_Exit_3"/>    
				    <text x="-2.9254485172627751" y="0.62279150848648923" text-anchor="middle" font-size="0.040000000000000001" style="fill:darkgrey" id="tsggCell1_Exit_3">50</text>    
			   </g>   
			   <g>    
				    <polygon id="psggCell2_Enter_0" points="-5.07608,0.355607 -5.03625,0.315775 -4.99642,0.275944 -4.95656,0.236142 -4.91644,0.196597 -4.8755,0.157914 -4.83274,0.121262 -4.78688,0.0886007 -4.73694,0.0626832 -4.70097,0.149528 -5.00962,0.422075 " style="fill:#eee;stroke:darkgrey;stroke-width:0.005"/>    
				    <polyline points="-5.07608,0.355607 -5.03625,0.315775 -4.99642,0.275944 -4.95656,0.236142 -4.91644,0.196597 -4.8755,0.157914 -4.83274,0.121262 -4.78688,0.0886007 -4.73694,0.0626832 " style="fill:#eee;stroke:black;stroke-width:0.010" id="psggCell2_Enter_0"/>    
				    <polygon points="-5.04865,0.354758 -5.00877,0.394639 -5.01457,0.360556 " style="fill:#ccc;stroke-width:0" id="bsggCell2_Enter_0"/>    
				    <text x="-4.8836915084864918" y="0.24440566376404627" text-anchor="middle" font-size="0.040000000000000001" style="fill:darkgrey" id="tsggCell2_Enter_0">51</text>    
			   </g>   
			   <g>    
				    <polygon id="psggCell2_Enter_1" points="-4.73694,0.0626832 -4.6833,0.0456938 -4.62778,0.0363648 -4.57162,0.0320446 -4.51532,0.0304457 -4.45899,0.0300417 -4.40266,0.03 -4.34633,0.03 -4.29,0.03 -4.29,0.124 -4.70097,0.149528 " style="fill:#eee;stroke:darkgrey;stroke-width:0.005"/>    
				    <polyline points="-4.73694,0.0626832 -4.6833,0.0456938 -4.62778,0.0363648 -4.57162,0.0320446 -4.51532,0.0304457 -4.45899,0.0300417 -4.40266,0.03 -4.34633,0.03 -4.29,0.03 " style="fill:#eee;stroke:black;stroke-width:0.010" id="psggCell2_Enter_1"/>    
				    <polygon points="-4.71127,0.0723985 -4.68968,0.124505 -4.682,0.0907982 " style="fill:#ccc;stroke-width:0" id="bsggCell2_Enter_1"/>    
				    <text x="-4.514643089124025" y="0.091540803291759121" text-anchor="middle" font-size="0.040000000000000001" style="fill:darkgrey" id="tsggCell2_Enter_1">52</text>    
			   </g>   
			   <g>    
				    <polygon id="psggCell2_Load_0" points="-5.03366,0.270754 -5.09199,0.32909 -5.15033,0.387426 -5.20867,0.445763 -5.267,0.504099 -5.32534,0.562435 -5.38368,0.620772 -5.44201,0.679108 -5.50035,0.737444 -5.56682,0.670976 -5.10013,0.204286 " style="fill:#eee;stroke:darkgrey;stroke-width:0.005"/>    
				    <polyline points="-5.03366,0.270754 -5.09199,0.32909 -5.15033,0.387426 -5.20867,0.445763 -5.267,0.504099 -5.32534,0.562435 -5.38368,0.620772 -5.44201,0.679108 -5.50035,0.737444 " style="fill:#eee;stroke:black;stroke-width:0.010" id="psggCell2_Load_0"/>    
				    <polygon points="-5.06109,0.271602 -5.10097,0.231721 -5.09518,0.265804 " style="fill:#ccc;stroke-width:0" id="bsggCell2_Load_0"/>    
				    <text x="-5.3002367235014596" y="0.48496500705120543" text-anchor="middle" font-size="0.040000000000000001" style="fill:darkgrey" id="tsggCell2_Load_0">53</text>    
			   </g>   
			   <g>    
				    <polygon id="psggCell2_Load_1" points="-5.50035,0.737444 -5.55868,0.795781 -5.61702,0.854117 -5.67536,0.912453 -5.73369,0.97079 -5.79203,1.02913 -5.85037,1.08746 -5.9087,1.1458 -5.96704,1.20413 -6.03351,1.13767 -5.56682,0.670976 " style="fill:#eee;stroke:darkgrey;stroke-width:0.005"/>    
				    <polyline points="-5.50035,0.737444 -5.55868,0.795781 -5.61702,0.854117 -5.67536,0.912453 -5.73369,0.97079 -5.79203,1.02913 -5.85037,1.08746 -5.9087,1.1458 -5.96704,1.20413 " style="fill:#eee;stroke:black;stroke-width:0.010" id="psggCell2_Load_1"/>    
				    <polygon points="-5.52778,0.738293 -5.56766,0.698412 -5.56187,0.732495 " style="fill:#ccc;stroke-width:0" id="bsggCell2_Load_1"/>    
				    <text x="-5.7669271990845807" y="0.95165548263432675" text-anchor="middle" font-size="0.040000000000000001" style="fill:darkgrey" id="tsggCell2_Load_1">54</text>    
			   </g>   
			   <g>    
				    <polygon id="psggCell2_Load_2" points="-5.96704,1.20413 -6.02537,1.26247 -6.08371,1.32081 -6.14205,1.37914 -6.20038,1.43748 -6.25872,1.49582 -6.31706,1.55415 -6.37539,1.61249 -6.43373,1.67083 -6.5002,1.60436 -6.03351,1.13767 " style="fill:#eee;stroke:darkgrey;stroke-width:0.005"/>    
				    <polyline points="-5.96704,1.20413 -6.02537,1.26247 -6.08371,1.32081 -6.14205,1.37914 -6.20038,1.43748 -6.25872,1.49582 -6.31706,1.55415 -6.37539,1.61249 -6.43373,1.67083 " style="fill:#eee;stroke:black;stroke-width:0.010" id="psggCell2_Load_2"/>    
				    <polygon points="-5.99447,1.20498 -6.03435,1.1651 -6.02856,1.19918 " style="fill:#ccc;stroke-width:0" id="bsggCell2_Load_2"/>    
				    <text x="-6.2336176746677028" y="1.4183459582174478" text-anchor="middle" font-size="0.040000000000000001" style="fill:darkgrey" id="tsggCell2_Load_2">55</text>    
			   </g>   
			   <g>    
				    <polygon id="psggCell2_Load_3" points="-6.43373,1.67083 -6.49207,1.72916 -6.5504,1.7875 -6.60874,1.84583 -6.66707,1.90417 -6.72541,1.96251 -6.78375,2.02084 -6.84208,2.07918 -6.90042,2.13752 -6.96689,2.07105 -6.5002,1.60436 " style="fill:#eee;stroke:darkgrey;stroke-width:0.005"/>    
				    <polyline points="-6.43373,1.67083 -6.49207,1.72916 -6.5504,1.7875 -6.60874,1.84583 -6.66707,1.90417 -6.72541,1.96251 -6.78375,2.02084 -6.84208,2.07918 -6.90042,2.13752 " style="fill:#eee;stroke:black;stroke-width:0.010" id="psggCell2_Load_3"/>    
				    <polygon points="-6.46116,1.67167 -6.50105,1.63179 -6.49525,1.66588 " style="fill:#ccc;stroke-width:0" id="bsggCell2_Load_3"/>    
				    <text x="-6.7003081502508239" y="1.885036433800569" text-anchor="middle" font-size="0.040000000000000001" style="fill:darkgrey" id="tsggCell2_Load_3">56</text>    
			   </g>   
			   <g>    
				    <polygon id="psggCell2_Load_4" points="-6.90042,2.13752 -6.94025,2.17735 -6.98008,2.21718 -7.01994,2.25698 -7.06006,2.29653 -7.101,2.33521 -7.14376,2.37186 -7.18962,2.40452 -7.23956,2.43044 -7.27554,2.34359 -6.96689,2.07105 " style="fill:#eee;stroke:darkgrey;stroke-width:0.005"/>    
				    <polyline points="-6.90042,2.13752 -6.94025,2.17735 -6.98008,2.21718 -7.01994,2.25698 -7.06006,2.29653 -7.101,2.33521 -7.14376,2.37186 -7.18962,2.40452 -7.23956,2.43044 " style="fill:#eee;stroke:black;stroke-width:0.010" id="psggCell2_Load_4"/>    
				    <polygon points="-6.92786,2.13836 -6.96774,2.09848 -6.96194,2.13257 " style="fill:#ccc;stroke-width:0" id="bsggCell2_Load_4"/>    
				    <text x="-7.0928117347054487" y="2.2769166282616498" text-anchor="middle" font-size="0.040000000000000001" style="fill:darkgrey" id="tsggCell2_Load_4">57</text>    
			   </g>   
			   <g>    
				    <polygon id="psggCell2_Load_5" points="-7.23956,2.43044 -7.2678,2.44054 -7.29689,2.44783 -7.32655,2.45223 -7.3565,2.4537 -7.38646,2.45223 -7.41612,2.44783 -7.44521,2.44054 -7.47344,2.43044 -7.43002,2.3256 -7.28299,2.3256 " style="fill:#eee;stroke:darkgrey;stroke-width:0.005"/>    
				    <polyline points="-7.23956,2.43044 -7.2678,2.44054 -7.29689,2.44783 -7.32655,2.45223 -7.3565,2.4537 -7.38646,2.45223 -7.41612,2.44783 -7.44521,2.44054 -7.47344,2.43044 " style="fill:#eee;stroke:black;stroke-width:0.010" id="psggCell2_Load_5"/>    
				    <polygon points="-7.26673,2.41712 -7.29278,2.35422 -7.29823,2.39333 " style="fill:#ccc;stroke-width:0" id="bsggCell2_Load_5"/>    
				    <text x="-7.3565032431919395" y="2.4139827491121348" text-anchor="middle" font-size="0.040000000000000001" style="fill:darkgrey" id="tsggCell2_Load_5">58</text>    
			   </g>   
			   <g>    
				    <polygon id="psggCell2_Load_6" points="-7.47344,2.43044 -7.52339,2.40452 -7.56924,2.37186 -7.612,2.33521 -7.65295,2.29653 -7.69306,2.25698 -7.73292,2.21718 -7.77276,2.17735 -7.81259,2.13752 -7.74612,2.07105 -7.43747,2.34359 " style="fill:#eee;stroke:darkgrey;stroke-width:0.005"/>    
				    <polyline points="-7.47344,2.43044 -7.52339,2.40452 -7.56924,2.37186 -7.612,2.33521 -7.65295,2.29653 -7.69306,2.25698 -7.73292,2.21718 -7.77276,2.17735 -7.81259,2.13752 " style="fill:#eee;stroke:black;stroke-width:0.010" id="psggCell2_Load_6"/>    
				    <polygon points="-7.48473,2.40542 -7.46314,2.35331 -7.49241,2.37171 " style="fill:#ccc;stroke-width:0" id="bsggCell2_Load_6"/>    
				    <text x="-7.6201947516784321" y="2.2769166282616498" text-anchor="middle" font-size="0.040000000000000001" style="fill:darkgrey" id="tsggCell2_Load_6">59</text>    
			   </g>   
			   <g>    
				    <polygon id="psggCell2_Load_7" points="-7.81259,2.13752 -7.85242,2.09768 -7.89225,2.05785 -7.93205,2.01799 -7.9716,1.97788 -8.01028,1.93693 -8.04693,1.89417 -8.07959,1.84832 -8.10551,1.79837 -8.01867,1.7624 -7.74612,2.07105 " style="fill:#eee;stroke:darkgrey;stroke-width:0.005"/>    
				    <polyline points="-7.81259,2.13752 -7.85242,2.09768 -7.89225,2.05785 -7.93205,2.01799 -7.9716,1.97788 -8.01028,1.93693 -8.04693,1.89417 -8.07959,1.84832 -8.10551,1.79837 " style="fill:#eee;stroke:black;stroke-width:0.010" id="psggCell2_Load_7"/>    
				    <polygon points="-7.81344,2.11008 -7.77355,2.0702 -7.80764,2.076 " style="fill:#ccc;stroke-width:0" id="bsggCell2_Load_7"/>    
				    <text x="-7.9378880550110162" y="1.9592233249290656" text-anchor="middle" font-size="0.040000000000000001" style="fill:darkgrey" id="tsggCell2_Load_7">60</text>    
			   </g>   
			   <g>    
				    <polygon id="psggCell2_Load_8" points="-8.10551,1.79837 -8.11561,1.77014 -8.1229,1.74105 -8.1273,1.71138 -8.12877,1.68143 -8.1273,1.65148 -8.1229,1.62182 -8.11561,1.59273 -8.10551,1.56449 -8.00067,1.60792 -8.00067,1.75495 " style="fill:#eee;stroke:darkgrey;stroke-width:0.005"/>    
				    <polyline points="-8.10551,1.79837 -8.11561,1.77014 -8.1229,1.74105 -8.1273,1.71138 -8.12877,1.68143 -8.1273,1.65148 -8.1229,1.62182 -8.11561,1.59273 -8.10551,1.56449 " style="fill:#eee;stroke:black;stroke-width:0.010" id="psggCell2_Load_8"/>    
				    <polygon points="-8.0922,1.77121 -8.02929,1.74515 -8.0684,1.7397 " style="fill:#ccc;stroke-width:0" id="bsggCell2_Load_8"/>    
				    <text x="-8.0720325900114993" y="1.6984534022925744" text-anchor="middle" font-size="0.040000000000000001" style="fill:darkgrey" id="tsggCell2_Load_8">61</text>    
			   </g>   
			   <g>    
				    <polygon id="psggCell2_Load_9" points="-8.10551,1.56449 -8.07959,1.51455 -8.04693,1.46869 -8.01028,1.42593 -7.9716,1.38499 -7.93205,1.34487 -7.89225,1.30501 -7.85242,1.26518 -7.81259,1.22535 -7.74612,1.29182 -8.01867,1.60046 " style="fill:#eee;stroke:darkgrey;stroke-width:0.005"/>    
				    <polyline points="-8.10551,1.56449 -8.07959,1.51455 -8.04693,1.46869 -8.01028,1.42593 -7.9716,1.38499 -7.93205,1.34487 -7.89225,1.30501 -7.85242,1.26518 -7.81259,1.22535 " style="fill:#eee;stroke:black;stroke-width:0.010" id="psggCell2_Load_9"/>    
				    <polygon points="-8.08049,1.55321 -8.02838,1.57479 -8.04678,1.54552 " style="fill:#ccc;stroke-width:0" id="bsggCell2_Load_9"/>    
				    <text x="-7.9378880550110154" y="1.4318403079560826" text-anchor="middle" font-size="0.040000000000000001" style="fill:darkgrey" id="tsggCell2_Load_9">62</text>    
			   </g>   
			   <g>    
				    <polygon id="psggCell2_Load_10" points="-7.81259,1.22535 -7.75425,1.16701 -7.69591,1.10868 -7.63758,1.05034 -7.57924,0.992003 -7.52091,0.933666 -7.46257,0.87533 -7.40423,0.816994 -7.3459,0.758657 -7.27943,0.825126 -7.74612,1.29182 " style="fill:#eee;stroke:darkgrey;stroke-width:0.005"/>    
				    <polyline points="-7.81259,1.22535 -7.75425,1.16701 -7.69591,1.10868 -7.63758,1.05034 -7.57924,0.992003 -7.52091,0.933666 -7.46257,0.87533 -7.40423,0.816994 -7.3459,0.758657 " style="fill:#eee;stroke:black;stroke-width:0.010" id="psggCell2_Load_10"/>    
				    <polygon points="-7.78515,1.2245 -7.74527,1.26438 -7.75107,1.2303 " style="fill:#ccc;stroke-width:0" id="bsggCell2_Load_10"/>    
				    <text x="-7.5460078605499357" y="1.0393367235014577" text-anchor="middle" font-size="0.040000000000000001" style="fill:darkgrey" id="tsggCell2_Load_10">63</text>    
			   </g>   
			   <g>    
				    <polygon id="psggCell2_Exit_0" points="-7.75014,0.03 -7.69381,0.03 -7.63748,0.03 -7.58115,0.0300417 -7.52482,0.0304457 -7.46852,0.0320446 -7.41237,0.0363648 -7.35685,0.0456938 -7.3032,0.0626832 -7.33918,0.149528 -7.75014,0.124 " style="fill:#eee;stroke:darkgrey;stroke-width:0.005"/>    
				    <polyline points="-7.75014,0.03 -7.69381,0.03 -7.63748,0.03 -7.58115,0.0300417 -7.52482,0.0304457 -7.46852,0.0320446 -7.41237,0.0363648 -7.35685,0.0456938 -7.3032,0.0626832 " style="fill:#eee;stroke:black;stroke-width:0.010" id="psggCell2_Exit_0"/>    
				    <polygon points="-7.73014,0.0488 -7.73014,0.1052 -7.71014,0.077 " style="fill:#ccc;stroke-width:0" id="bsggCell2_Exit_0"/>    
				    <text x="-7.5254997643747057" y="0.091540803291757483" text-anchor="middle" font-size="0.040000000000000001" style="fill:darkgrey" id="tsggCell2_Exit_0">64</text>    
			   </g>   
			   <g>    
				    <polygon id="psggCell2_Exit_1" points="-7.3032,0.0626832 -7.27609,0.0755047 -7.25037,0.0909216 -7.22629,0.108785 -7.20407,0.128924 -7.18393,0.151144 -7.16606,0.17523 -7.15065,0.200952 -7.13783,0.228061 -7.24267,0.271486 -7.34663,0.167523 " style="fill:#eee;stroke:darkgrey;stroke-width:0.005"/>    
				    <polyline points="-7.3032,0.0626832 -7.27609,0.0755047 -7.25037,0.0909216 -7.22629,0.108785 -7.20407,0.128924 -7.18393,0.151144 -7.16606,0.17523 -7.15065,0.200952 -7.13783,0.228061 " style="fill:#eee;stroke:black;stroke-width:0.010" id="psggCell2_Exit_1"/>    
				    <polygon points="-7.29341,0.0913047 -7.31947,0.154208 -7.28796,0.13041 " style="fill:#ccc;stroke-width:0" id="bsggCell2_Exit_1"/>    
				    <text x="-7.2441872002246388" y="0.18606593257590626" text-anchor="middle" font-size="0.040000000000000001" style="fill:darkgrey" id="tsggCell2_Exit_1">65</text>    
			   </g>   
			   <g>    
				    <polygon id="psggCell2_Exit_2" points="-7.13783,0.228061 -7.12772,0.256296 -7.12044,0.285385 -7.11604,0.315048 -7.11457,0.345 -7.11604,0.374952 -7.12044,0.404615 -7.12772,0.433704 -7.13783,0.461939 -7.24267,0.418514 -7.24267,0.271486 " style="fill:#eee;stroke:darkgrey;stroke-width:0.005"/>    
				    <polyline points="-7.13783,0.228061 -7.12772,0.256296 -7.12044,0.285385 -7.11604,0.315048 -7.11457,0.345 -7.11604,0.374952 -7.12044,0.404615 -7.12772,0.433704 -7.13783,0.461939 " style="fill:#eee;stroke:black;stroke-width:0.010" id="psggCell2_Exit_2"/>    
				    <polygon points="-7.15114,0.255223 -7.21404,0.281279 -7.17494,0.286729 " style="fill:#ccc;stroke-width:0" id="bsggCell2_Exit_2"/>    
				    <text x="-7.171303982262291" y="0.36202158584999844" text-anchor="middle" font-size="0.040000000000000001" style="fill:darkgrey" id="tsggCell2_Exit_2">66</text>    
			   </g>   
			   <g>    
				    <polygon id="psggCell2_Exit_3" points="-7.13783,0.461939 -7.16374,0.511884 -7.19641,0.557738 -7.23306,0.6005 -7.27174,0.641444 -7.31128,0.68156 -7.35109,0.721421 -7.39092,0.761252 -7.43075,0.801084 -7.49722,0.734616 -7.22467,0.425967 " style="fill:#eee;stroke:darkgrey;stroke-width:0.005"/>    
				    <polyline points="-7.13783,0.461939 -7.16374,0.511884 -7.19641,0.557738 -7.23306,0.6005 -7.27174,0.641444 -7.31128,0.68156 -7.35109,0.721421 -7.39092,0.761252 -7.43075,0.801084 " style="fill:#eee;stroke:black;stroke-width:0.010" id="psggCell2_Exit_3"/>    
				    <polygon points="-7.16285,0.473223 -7.21496,0.451639 -7.19656,0.480909 " style="fill:#ccc;stroke-width:0" id="bsggCell2_Exit_3"/>    
				    <text x="-7.3054485172627768" y="0.6227915084864899" text-anchor="middle" font-size="0.040000000000000001" style="fill:darkgrey" id="tsggCell2_Exit_3">67</text>    
			   </g>   
			  </g>  
		 </g> 
</svg>